<svg xmlns="http://www.w3.org/2000/svg" id="amex" preserveAspectRatio="xMidYMid meet" viewBox="0 0 50 30"><title>amex</title><g data-name="Layer 2"><g data-name="Layer 1"><rect width="50" height="30" rx="4" ry="4" fill="#0072ce"/><path d="M37.52 19.43l5.478.011-4.021-4.42.07-.077L43 10.558h-5.393L36.222 12l-1.29-1.44H22.798l-1.126 2.51-1.151-2.51h-4.725v1.428l-.73-1.428H11.01L7 19.428h4.67l.61-1.45h1.547l.61 1.45h5.228v-1.538l.672 1.538h2.653l.671-1.572v1.572h11.107l1.42-1.465zm-20.421-1.05h-1.823l-.621-1.464h-3.201l-.62 1.463H8.83l2.984-6.756h2.546l.03.068 2.51 5.677v-5.745h2.815l2.03 4.264 1.871-4.264h2.804v6.757H24.6l-.01-4.707-2.135 4.707h-1.57l-2.146-4.707v4.707H17.1zm23.395-.004h-2.379l-1.93-2.11-2.004 2.11h-6.533v-6.753h6.634l1.93 2.085 1.994-2.085h2.287l-3.112 3.395zm-11.02-1.58h3.796l1.733-1.803-1.655-1.792h-3.875v.966h3.53v1.556h-3.53zm-17.352-1.46h1.865l-.932-2.202z" fill="#fff"/></g></g></svg>