<svg xmlns="http://www.w3.org/2000/svg" id="mastercard" preserveAspectRatio="xMidYMid meet" viewBox="0 0 50 30"><title>mastercard</title><g data-name="Layer 2"><g data-name="Layer 1"><rect x="1" y="1" width="48" height="28" rx="3" ry="3" fill="#fff"/><path data-name="&lt;Compound Path&gt;" d="M16.73 25.028V23.69a.794.794 0 0 0-.84-.848.826.826 0 0 0-.75.38.784.784 0 0 0-.705-.38.706.706 0 0 0-.625.317v-.263h-.464v2.133h.469v-1.182a.499.499 0 0 1 .522-.567c.308 0 .464.2.464.562v1.187h.469v-1.182a.503.503 0 0 1 .522-.567c.317 0 .469.2.469.562v1.187zm6.935-2.133h-.758v-.647h-.47v.647h-.432v.424h.433v.973c0 .495.192.79.74.79a1.09 1.09 0 0 0 .581-.165l-.134-.397a.857.857 0 0 1-.41.12c-.233 0-.309-.143-.309-.357v-.964h.76zm3.96-.054a.63.63 0 0 0-.563.313v-.259h-.46v2.133h.464v-1.196c0-.352.152-.549.456-.549a.756.756 0 0 1 .29.054l.142-.438a.992.992 0 0 0-.33-.058zm-5.986.224a1.595 1.595 0 0 0-.87-.224c-.54 0-.889.26-.889.683 0 .348.26.563.737.63l.219.03c.254.037.374.103.374.224 0 .165-.17.259-.486.259a1.136 1.136 0 0 1-.71-.223l-.218.361a1.54 1.54 0 0 0 .923.277c.616 0 .973-.29.973-.696 0-.375-.28-.572-.745-.639l-.219-.03c-.2-.028-.361-.068-.361-.21 0-.157.152-.25.406-.25a1.376 1.376 0 0 1 .665.182zm12.435-.224a.63.63 0 0 0-.563.313v-.259h-.46v2.133h.465v-1.196c0-.352.151-.549.455-.549a.756.756 0 0 1 .29.054l.143-.438a.992.992 0 0 0-.33-.058zm-5.981 1.12a1.078 1.078 0 0 0 1.138 1.121 1.117 1.117 0 0 0 .768-.254l-.223-.375a.938.938 0 0 1-.558.192.684.684 0 0 1 0-1.366.938.938 0 0 1 .558.192l.223-.375a1.118 1.118 0 0 0-.768-.255 1.078 1.078 0 0 0-1.138 1.12zm4.347 0v-1.066h-.464v.259a.81.81 0 0 0-.674-.313 1.122 1.122 0 0 0 0 2.241.81.81 0 0 0 .674-.312v.258h.464zm-1.727 0a.646.646 0 1 1 .647.684.64.64 0 0 1-.647-.683zm-5.602-1.12a1.121 1.121 0 0 0 .032 2.241 1.297 1.297 0 0 0 .874-.3l-.227-.343a1.016 1.016 0 0 1-.62.223.593.593 0 0 1-.639-.522h1.585c.004-.058.009-.116.009-.178a1.023 1.023 0 0 0-1.014-1.12zm-.009.415a.53.53 0 0 1 .54.518h-1.106a.55.55 0 0 1 .566-.518zm11.645.706v-1.924h-.464v1.116a.81.81 0 0 0-.674-.313 1.122 1.122 0 0 0 0 2.24.81.81 0 0 0 .674-.312v.26h.464zm-1.727 0a.646.646 0 1 1 .647.683.64.64 0 0 1-.647-.683zm-15.675 0v-1.067h-.464v.259a.81.81 0 0 0-.674-.313 1.122 1.122 0 0 0 0 2.241.81.81 0 0 0 .674-.312v.258h.464zm-1.727 0a.646.646 0 1 1 .647.683.64.64 0 0 1-.647-.683z"/><g data-name="&lt;Group&gt;"><path fill="#ff5f00" d="M21.485 6.636h7.031V19.27h-7.031z"/><path data-name="&lt;Path&gt;" d="M21.931 12.953A8.021 8.021 0 0 1 25 6.636a8.035 8.035 0 1 0 0 12.634 8.021 8.021 0 0 1-3.069-6.317z" fill="#eb001b"/><path d="M38 12.953a8.035 8.035 0 0 1-13 6.317 8.036 8.036 0 0 0 0-12.634 8.035 8.035 0 0 1 13 6.317z" fill="#f79e1b"/></g><path d="M46 1a3.003 3.003 0 0 1 3 3v22a3.003 3.003 0 0 1-3 3H4a3.003 3.003 0 0 1-3-3V4a3.003 3.003 0 0 1 3-3h42m0-1H4a4.012 4.012 0 0 0-4 4v22a4.012 4.012 0 0 0 4 4h42a4.012 4.012 0 0 0 4-4V4a4.012 4.012 0 0 0-4-4z" fill="#ddd"/></g></g></svg>