<svg xmlns="http://www.w3.org/2000/svg" id="visa" preserveAspectRatio="xMidYMid meet" viewBox="0 0 50 30"><title>visa</title><g data-name="Layer 2"><g data-name="Layer 1"><rect x=".5" y=".5" width="49" height="29" rx="3.5" ry="3.5" fill="#fff"/><path d="M46 1a3.003 3.003 0 0 1 3 3v22a3.003 3.003 0 0 1-3 3H4a3.003 3.003 0 0 1-3-3V4a3.003 3.003 0 0 1 3-3h42m0-1H4a4.012 4.012 0 0 0-4 4v22a4.012 4.012 0 0 0 4 4h42a4.012 4.012 0 0 0 4-4V4a4.012 4.012 0 0 0-4-4z" fill="#ddd"/><path fill="#1a1f71" d="M22.632 19.507h-2.347l1.464-9.008h2.346l-1.463 9.008zM18.311 10.499l-2.234 6.196-.266-1.334-.789-4.05a1.003 1.003 0 0 0-1.112-.812h-3.695l-.044.153a8.738 8.738 0 0 1 2.453 1.03l2.039 7.825h2.443l3.731-9.008zM36.757 19.507h2.153l-1.88-9.008h-1.88a1.082 1.082 0 0 0-1.086.672l-3.497 8.336h2.445l.487-1.338h2.982zm-2.584-3.187l1.235-3.37.695 3.37zM30.751 12.665l.336-1.933a6.792 6.792 0 0 0-2.109-.392c-1.167 0-3.93.506-3.93 2.98 0 2.328 3.245 2.357 3.245 3.577 0 1.223-2.911 1.004-3.87.234l-.349 2.023a6.576 6.576 0 0 0 2.646.507c1.602 0 4.018-.828 4.018-3.083 0-2.341-3.276-2.56-3.276-3.577 0-1.018 2.287-.888 3.29-.336z"/><path d="M15.811 15.36l-.789-4.049a1.003 1.003 0 0 0-1.112-.812h-3.695l-.044.153a9.063 9.063 0 0 1 3.481 1.748 7.004 7.004 0 0 1 2.16 2.96z" fill="#faaa13"/></g></g></svg>