<?xml version="1.0" encoding="iso-8859-1"?>
<!-- Generator: Adobe Illustrator 16.0.0, SVG Export Plug-In . SVG Version: 6.00 Build 0)  -->
<!DOCTYPE svg PUBLIC "-//W3C//DTD SVG 1.1//EN" "http://www.w3.org/Graphics/SVG/1.1/DTD/svg11.dtd">
<svg version="1.1" id="Capa_1" xmlns="http://www.w3.org/2000/svg" xmlns:xlink="http://www.w3.org/1999/xlink" x="0px" y="0px"
	 width="535.022px" height="535.021px" viewBox="0 0 535.022 535.021" style="enable-background:new 0 0 535.022 535.021;"
	 xml:space="preserve">
<g>
	<g>
		<circle cx="384.279" cy="275.085" r="51.657"/>
		<path d="M518.517,279.713c-11.58-4.284-24.423,1.607-28.726,13.168l-28.917,77.857l-195.248-61.285l30.62-63.286
			c5.374-11.111,0.727-24.47-10.385-29.845c-11.093-5.374-24.471-0.727-29.845,10.375l-41.894,86.579
			c-2.831,5.842-2.974,12.633-0.401,18.6c2.582,5.957,7.621,10.508,13.818,12.449l31.929,10.021l-76.625,43.645l-49.294,14.496
			c-0.048,0.02-0.096,0.029-0.144,0.039l-1.606,0.477l-70.208-87.477c-11.58-14.439-32.685-16.734-47.114-5.164
			c-14.439,11.59-16.744,32.684-5.164,47.123l84.265,104.988C100.042,480.525,109.72,485,119.722,485
			c3.146,0,6.331-0.439,9.458-1.367l6.971-2.055l57.576,46.09c6.12,4.906,13.541,7.354,20.942,7.354
			c7.458,0,14.908-2.477,21.057-7.439L297.7,477.57c0.211-0.172,0.363-0.383,0.564-0.564l101.075-78.727l68.382,21.467
			c2.229,0.697,4.476,1.033,6.703,1.033c9.104,0,17.604-5.604,20.942-14.564l36.309-97.758
			C535.978,296.877,530.087,284.006,518.517,279.713z"/>
		<path d="M457.901,215.147c0,5.278,4.283,9.562,9.562,9.562c5.278,0,9.562-4.284,9.562-9.562V69.328
			c0-5.278-4.284-9.562-9.562-9.562c-5.279,0-9.562,4.284-9.562,9.562V215.147z"/>
		<path d="M443.461,155.391V9.562c0-5.278-4.284-9.562-9.562-9.562c-5.279,0-9.562,4.284-9.562,9.562v145.828
			c0,5.279,4.283,9.562,9.562,9.562C439.187,164.953,443.461,160.669,443.461,155.391z"/>
		<path d="M115.343,180.397v145.818c0,5.289,4.284,9.562,9.562,9.562c5.278,0,9.562-4.273,9.562-9.562V180.397
			c0-5.279-4.284-9.562-9.562-9.562C119.626,170.834,115.343,175.118,115.343,180.397z"/>
		<path d="M148.907,120.631v145.828c0,5.279,4.284,9.562,9.562,9.562c5.279,0,9.562-4.283,9.562-9.562V120.631
			c0-5.279-4.284-9.562-9.562-9.562C153.191,111.069,148.907,115.353,148.907,120.631z"/>
	</g>
</g>
<g>
</g>
<g>
</g>
<g>
</g>
<g>
</g>
<g>
</g>
<g>
</g>
<g>
</g>
<g>
</g>
<g>
</g>
<g>
</g>
<g>
</g>
<g>
</g>
<g>
</g>
<g>
</g>
<g>
</g>
</svg>
