<svg height="496pt" viewBox="0 0 496 496" width="496pt" xmlns="http://www.w3.org/2000/svg"><path d="m8 8h480v480h-480zm0 0" fill="#d9d7d8"/><path d="m8 8h480v64h-480zm0 0" fill="#bab8b9"/><path d="m224 240h-16v-16c0-22.054688-17.945312-40-40-40h-24v-16h24c30.871094 0 56 25.121094 56 56zm0 0"/><path d="m200 360h-32v-16h32c4.414062 0 8-3.59375 8-8v-80h16v80c0 13.230469-10.769531 24-24 24zm0 0"/><path d="m144 264h16v72h-16zm0 0"/><path d="m144 232h16v16h-16zm0 0"/><path d="m192 392h-24c-30.871094 0-56-25.121094-56-56v-24h16v24c0 22.054688 17.945312 40 40 40h24zm0 0"/><path d="m192 328h-16v-104c0-4.40625-3.585938-8-8-8h-32c-4.414062 0-8 3.59375-8 8v72h-16v-72c0-13.230469 10.769531-24 24-24h32c13.230469 0 24 10.769531 24 24zm0 0"/><path d="m248.671875 371.207031-14.65625-6.40625c3.96875-9.097656 5.984375-18.785156 5.984375-28.800781v-112c0-34.113281-24.214844-63.785156-57.59375-70.558594l3.1875-15.679687c40.796875 8.277343 70.40625 44.550781 70.40625 86.238281v112c0 12.230469-2.464844 24.078125-7.328125 35.207031zm0 0"/><path d="m96 288h-16v-64c0-48.519531 39.480469-88 88-88v16c-39.703125 0-72 32.304688-72 72zm0 0"/><path d="m80 304h16v16h-16zm0 0"/><path d="m168 424c-48.519531 0-88-39.480469-88-88h16c0 39.695312 32.296875 72 72 72 4.847656 0 9.703125-.488281 14.40625-1.441406l3.1875 15.679687c-5.761719 1.167969-11.671875 1.761719-17.59375 1.761719zm0 0"/><path d="m203.199219 416.671875-6.398438-14.664063c11.367188-4.96875 21.335938-12.855468 28.816407-22.816406l12.796874 9.609375c-9.148437 12.167969-21.316406 21.808594-35.214843 27.871094zm0 0"/><path d="m64.0625 396.007812c-10.511719-18.160156-16.0625-38.910156-16.0625-60.007812v-112c0-24.6875 7.441406-48.398438 21.511719-68.574219l13.128906 9.160157c-12.191406 17.46875-18.640625 38.015624-18.640625 59.414062v112c0 18.289062 4.816406 36.265625 13.902344 51.992188zm0 0"/><path d="m99.425781 434.488281c-9.722656-6.785156-18.371093-14.945312-25.707031-24.25l12.5625-9.902343c6.367188 8.070312 13.863281 15.144531 22.292969 21.023437zm0 0"/><path d="m168 456c-17.992188 0-35.296875-3.886719-51.433594-11.550781l6.859375-14.457031c13.980469 6.640624 28.972657 10.007812 44.574219 10.007812 57.34375 0 104-46.65625 104-104v-56h16v56c0 66.167969-53.832031 120-120 120zm0 0"/><path d="m288 264h-16v-40c0-57.34375-46.65625-104-104-104-15.601562 0-30.59375 3.367188-44.566406 10l-6.859375-14.457031c16.128906-7.65625 33.433593-11.542969 51.425781-11.542969 66.167969 0 120 53.832031 120 120zm0 0"/><path d="m95.214844 149.710938-11.199219-11.421876c4.761719-4.664062 9.9375-8.96875 15.410156-12.777343l9.160157 13.128906c-4.753907 3.304687-9.242188 7.023437-13.371094 11.070313zm0 0"/><path d="m488 496h-480c-4.425781 0-8-3.585938-8-8v-480c0-4.414062 3.574219-8 8-8h480c4.425781 0 8 3.585938 8 8v480c0 4.414062-3.574219 8-8 8zm-472-16h464v-464h-464zm0 0"/><path d="m32 32h16v16h-16zm0 0"/><path d="m64 32h16v16h-16zm0 0"/><path d="m96 32h16v16h-16zm0 0"/><path d="m128 32h16v16h-16zm0 0"/><path d="m160 32h16v16h-16zm0 0"/><path d="m8 64h480v16h-480zm0 0"/><path d="m304 96h160v16h-160zm0 0"/><path d="m304 128h160v16h-160zm0 0"/><path d="m304 160h160v16h-160zm0 0"/><path d="m304 384h160v16h-160zm0 0"/><path d="m304 416h160v16h-160zm0 0"/><path d="m304 448h160v16h-160zm0 0"/></svg>